<svg id="visual" viewBox="0 0 960 540" width="960" height="540" xmlns="http://www.w3.org/2000/svg" xmlns:xlink="http://www.w3.org/1999/xlink" version="1.1"><rect x="0" y="0" width="960" height="540" fill="#f8f8f8"/><path d="M0 273L22.8 289.5C45.7 306 91.3 339 137 341C182.7 343 228.3 314 274 312.7C319.7 311.3 365.3 337.7 411.2 336C457 334.3 503 304.7 548.8 295.2C594.7 285.7 640.3 296.3 686 310.7C731.7 325 777.3 343 823 349.3C868.7 355.7 914.3 350.3 937.2 347.7L960 345L960 541L937.2 541C914.3 541 868.7 541 823 541C777.3 541 731.7 541 686 541C640.3 541 594.7 541 548.8 541C503 541 457 541 411.2 541C365.3 541 319.7 541 274 541C228.3 541 182.7 541 137 541C91.3 541 45.7 541 22.8 541L0 541Z" fill="#ffc400"/><path d="M0 325L22.8 338.2C45.7 351.3 91.3 377.7 137 386.3C182.7 395 228.3 386 274 375.5C319.7 365 365.3 353 411.2 353.5C457 354 503 367 548.8 375.5C594.7 384 640.3 388 686 387C731.7 386 777.3 380 823 379.8C868.7 379.7 914.3 385.3 937.2 388.2L960 391L960 541L937.2 541C914.3 541 868.7 541 823 541C777.3 541 731.7 541 686 541C640.3 541 594.7 541 548.8 541C503 541 457 541 411.2 541C365.3 541 319.7 541 274 541C228.3 541 182.7 541 137 541C91.3 541 45.7 541 22.8 541L0 541Z" fill="#ffa800"/><path d="M0 428L22.8 430.2C45.7 432.3 91.3 436.7 137 428C182.7 419.3 228.3 397.7 274 391.8C319.7 386 365.3 396 411.2 400.8C457 405.7 503 405.3 548.8 411C594.7 416.7 640.3 428.3 686 430.8C731.7 433.3 777.3 426.7 823 416.8C868.7 407 914.3 394 937.2 387.5L960 381L960 541L937.2 541C914.3 541 868.7 541 823 541C777.3 541 731.7 541 686 541C640.3 541 594.7 541 548.8 541C503 541 457 541 411.2 541C365.3 541 319.7 541 274 541C228.3 541 182.7 541 137 541C91.3 541 45.7 541 22.8 541L0 541Z" fill="#ff8c00"/><path d="M0 461L22.8 455.2C45.7 449.3 91.3 437.7 137 433.7C182.7 429.7 228.3 433.3 274 441.7C319.7 450 365.3 463 411.2 465.2C457 467.3 503 458.7 548.8 449.8C594.7 441 640.3 432 686 426.3C731.7 420.7 777.3 418.3 823 419.8C868.7 421.3 914.3 426.7 937.2 429.3L960 432L960 541L937.2 541C914.3 541 868.7 541 823 541C777.3 541 731.7 541 686 541C640.3 541 594.7 541 548.8 541C503 541 457 541 411.2 541C365.3 541 319.7 541 274 541C228.3 541 182.7 541 137 541C91.3 541 45.7 541 22.8 541L0 541Z" fill="#ff6d00"/><path d="M0 459L22.8 463.3C45.7 467.7 91.3 476.3 137 478C182.7 479.7 228.3 474.3 274 474.5C319.7 474.7 365.3 480.3 411.2 480.3C457 480.3 503 474.7 548.8 478C594.7 481.3 640.3 493.7 686 496C731.7 498.3 777.3 490.7 823 487.7C868.7 484.7 914.3 486.3 937.2 487.2L960 488L960 541L937.2 541C914.3 541 868.7 541 823 541C777.3 541 731.7 541 686 541C640.3 541 594.7 541 548.8 541C503 541 457 541 411.2 541C365.3 541 319.7 541 274 541C228.3 541 182.7 541 137 541C91.3 541 45.7 541 22.8 541L0 541Z" fill="#ff4600"/></svg>